<svg viewBox="0 0 22 17" fill="none" xmlns="http://www.w3.org/2000/svg">
    <path d="M6.082 3.89a5.05 5.05 0 0 1 7.137 0c1.898 1.864 1.969 4.887.246 6.891l-.211.211a.876.876 0 0 1-1.195.106.84.84 0 0 1-.07-1.196l.175-.21a3.336 3.336 0 0 0-.14-4.606c-1.301-1.336-3.446-1.336-4.782 0L3.27 9.059a3.417 3.417 0 0 0 0 4.78 3.407 3.407 0 0 0 4.605.141l.21-.175a.84.84 0 0 1 1.196.07.84.84 0 0 1-.07 1.195L9 15.246c-2.004 1.758-5.027 1.652-6.926-.21-1.969-1.97-1.969-5.204 0-7.173l4.008-3.972zm10.336 8.755c-2.004 1.968-5.203 1.968-7.172 0C7.348 10.746 7.277 7.758 9 5.754l.176-.211a.84.84 0 0 1 1.195-.07.84.84 0 0 1 .07 1.195l-.14.176a3.336 3.336 0 0 0 .14 4.605c1.301 1.301 3.446 1.301 4.782 0l3.972-3.972a3.417 3.417 0 0 0 0-4.782 3.407 3.407 0 0 0-4.605-.14l-.211.175a.84.84 0 0 1-1.195-.07.84.84 0 0 1 .07-1.195l.21-.176c2.005-1.758 5.028-1.652 6.927.211 1.968 1.969 1.968 5.168 0 7.172l-3.973 3.973z"
          fill="currentColor"/>
</svg>
