<svg viewBox="0 0 16 14" xmlns="http://www.w3.org/2000/svg">
    <path d="M13.338 1.145H11.87V.629A.62.62 0 0 0 11.242 0a.62.62 0 0 0-.63.629v.516H4.71V.629A.62.62 0 0 0 4.081 0a.62.62 0 0 0-.629.629v.516H1.984A1.983 1.983 0 0 0 0 3.129v8.887C0 13.113.887 14 1.984 14h11.339a1.983 1.983 0 0 0 1.984-1.984l-.001-8.887a1.958 1.958 0 0 0-1.968-1.984zM1.984 2.403h11.339c.403 0 .726.322.726.726v.532H1.259V3.13c0-.404.322-.726.725-.726zm11.354 10.339H1.984a.723.723 0 0 1-.726-.726V4.919h12.806v7.097a.723.723 0 0 1-.726.726zM4.565 6.306H3.113a.4.4 0 0 0-.403.403v.968a.4.4 0 0 0 .403.403h1.452a.4.4 0 0 0 .403-.403v-.968a.4.4 0 0 0-.403-.403zm3.822 0H6.935a.4.4 0 0 0-.403.403v.968a.4.4 0 0 0 .403.403h1.452a.4.4 0 0 0 .403-.403v-.968a.4.4 0 0 0-.403-.403zm3.822 0h-1.451a.4.4 0 0 0-.403.403v.968a.4.4 0 0 0 .403.403h1.451a.4.4 0 0 0 .404-.403v-.968a.4.4 0 0 0-.404-.403zM4.565 9.644H3.113a.4.4 0 0 0-.403.404v.967a.4.4 0 0 0 .403.404h1.452a.4.4 0 0 0 .403-.404v-.967a.4.4 0 0 0-.403-.404zm3.822 0H6.935a.4.4 0 0 0-.403.404v.967a.4.4 0 0 0 .403.404h1.452a.4.4 0 0 0 .403-.404v-.967a.4.4 0 0 0-.403-.404zm3.822 0h-1.451a.4.4 0 0 0-.403.404v.967a.4.4 0 0 0 .403.404h1.451a.4.4 0 0 0 .404-.404v-.967a.4.4 0 0 0-.404-.404z"
          fill="currentColor"/>
</svg>
