<svg viewBox="0 0 16 14" fill="none" xmlns="http://www.w3.org/2000/svg">
    <path fill-rule="evenodd" clip-rule="evenodd"
          d="M11.87 1.145h1.468c1.097 0 1.984.887 1.968 1.984v8.887A1.983 1.983 0 0 1 13.324 14H1.984A1.982 1.982 0 0 1 0 12.016V3.129c0-1.097.887-1.984 1.984-1.984h1.468V.629A.62.62 0 0 1 4.081 0a.62.62 0 0 1 .628.629v.516h5.904V.629A.62.62 0 0 1 11.242 0a.62.62 0 0 1 .628.629v.516zm1.453 1.258H1.984a.723.723 0 0 0-.726.726v.532h12.79V3.13a.723.723 0 0 0-.725-.726zm.015 10.339H1.984a.723.723 0 0 1-.726-.726V4.919h12.806v7.097a.723.723 0 0 1-.726.726zM9.803 7.139a.465.465 0 0 1 .76.141.46.46 0 0 1-.102.51l-.621.634-.884.901a394.31 394.31 0 0 1-1.513 1.54.467.467 0 0 1-.61.04L5.208 9.677a.461.461 0 0 1 .209-.843.466.466 0 0 1 .352.11l1.299.983c.23-.234.64-.651 1.22-1.244l.33-.337c.588-.599 1.096-1.118 1.185-1.206z"
          fill="currentColor"/>
</svg>
