<svg viewBox="0 0 16 16" fill="none" xmlns="http://www.w3.org/2000/svg">
    <path d="M4.56626 7.59352H5.08541C5.07264 7.71953 5.0614 7.83924 5.0614 7.97065C5.0614 8.10225 5.07311 8.23359 5.08564 8.36276H4.56626C4.27327 8.36276 4.02983 8.60619 4.02983 8.89919C4.02983 9.19218 4.27327 9.43562 4.56626 9.43562H4.5663L5.31204 9.43507C5.81143 10.8334 7.01319 11.8223 8.42714 11.8223C9.22181 11.8223 9.98512 11.5072 10.5834 10.9393L10.5843 10.9384C10.7943 10.7284 10.8106 10.403 10.6006 10.1765L10.6006 10.1765L10.5993 10.1752C10.3893 9.96517 10.0639 9.94882 9.8374 10.1589L9.8374 10.1589L9.8367 10.1595C9.43281 10.5488 8.92929 10.75 8.42707 10.75C7.60611 10.75 6.88787 10.223 6.48844 9.43502H8.97219C9.26518 9.43502 9.50862 9.19159 9.50862 8.89859C9.50862 8.60559 9.26518 8.36216 8.97219 8.36216H8.97218L6.15871 8.36272C6.14553 8.23293 6.13418 8.11367 6.13418 7.97063C6.13418 7.84231 6.14577 7.71354 6.15845 7.59349H8.97219C9.26518 7.59349 9.50862 7.35006 9.50862 7.05706C9.50862 6.76406 9.26518 6.52063 8.97219 6.52063H6.47591C6.8888 5.74682 7.60674 5.22067 8.42707 5.22067C8.94373 5.22067 9.43241 5.42091 9.85106 5.8111C10.0643 6.02362 10.4047 6.0045 10.6137 5.79551C10.8268 5.58232 10.8079 5.24149 10.5987 5.03229L10.5987 5.03227L10.5978 5.0314C9.98487 4.44885 9.23596 4.13343 8.44152 4.13343C7.02758 4.13343 5.82511 5.12229 5.3264 6.52065H4.56626C4.27327 6.52065 4.02983 6.76409 4.02983 7.05708C4.02983 7.35008 4.27327 7.59352 4.56626 7.59352ZM8 0.95C4.11148 0.95 0.95 4.11148 0.95 8C0.95 11.8885 4.11148 15.05 8 15.05C11.8885 15.05 15.05 11.8885 15.05 8C15.05 4.11148 11.8885 0.95 8 0.95ZM8 13.9771C4.71183 13.9771 2.02293 11.2882 2.02293 8C2.02293 4.71183 4.71183 2.02293 8 2.02293C11.2882 2.02293 13.9771 4.71183 13.9771 8C13.9771 11.2882 11.2882 13.9771 8 13.9771Z"
          fill="currentColor"/>
</svg>
