<svg viewBox="0 0 14 14" xmlns="http://www.w3.org/2000/svg">
    <path d="M7 0C3.14 0 0 3.14 0 7c0 3.79 3.025 6.88 6.788 6.993C6.857 14 6.93 14 7 14c.07 0 .143 0 .212-.007C10.974 13.88 14 10.789 14 7c0-3.86-3.14-7-7-7zm-.452 1.002v2.16H4.925a7.18 7.18 0 0 1 .247-.6c.406-.84.893-1.359 1.376-1.56zm.904 0c.483.201.97.72 1.376 1.56.089.184.168.39.247.6H7.452v-2.16zm-2.562.282a5.89 5.89 0 0 0-.53.89 8.413 8.413 0 0 0-.394.987h-1.7A6.105 6.105 0 0 1 4.89 1.284zm4.22 0a6.105 6.105 0 0 1 2.625 1.877h-1.7a8.415 8.415 0 0 0-.396-.988 5.886 5.886 0 0 0-.53-.889zM1.65 4.064h2.06c-.178.765-.289 1.601-.317 2.484H.917a6.087 6.087 0 0 1 .734-2.484zm2.992 0h1.905v2.484h-2.25c.031-.895.156-1.737.345-2.484zm2.809 0h1.905c.19.747.314 1.589.346 2.484H7.452V4.064zm2.836 0h2.06c.41.746.669 1.589.735 2.484h-2.477a12.719 12.719 0 0 0-.318-2.484zM.918 7.451h2.476c.029.883.14 1.72.318 2.484h-2.06a6.078 6.078 0 0 1-.735-2.484zm3.38 0h2.25v2.484H4.644a11.79 11.79 0 0 1-.345-2.484zm3.154 0h2.25c-.03.897-.155 1.739-.345 2.484H7.452V7.451zm3.154 0h2.477a6.077 6.077 0 0 1-.734 2.484h-2.06c.178-.764.289-1.601.317-2.484zM2.258 10.84h1.708c.117.351.248.681.395.987.158.327.341.628.536.897a6.112 6.112 0 0 1-2.639-1.884zm2.668 0h1.622v2.166c-.483-.204-.97-.734-1.376-1.574a7.014 7.014 0 0 1-.247-.592zm2.526 0h1.623c-.079.21-.158.408-.247.592-.406.84-.893 1.37-1.376 1.574v-2.166zm2.583 0h1.707a6.111 6.111 0 0 1-2.639 1.884c.195-.27.378-.57.536-.897.148-.306.278-.636.395-.987z"/>
</svg>
