<svg viewBox="0 0 14 12" fill="none" xmlns="http://www.w3.org/2000/svg">
    <path fill-rule="evenodd" clip-rule="evenodd"
          d="M14 1C14 0.447715 13.5523 0 13 0H1L0.883379 0.00672773C0.38604 0.0644928 0 0.487164 0 1C0 1.55228 0.447715 2 1 2H13L13.1166 1.99327C13.614 1.93551 14 1.51284 14 1ZM13 5C13.5523 5 14 5.44772 14 6C14 6.51284 13.614 6.93551 13.1166 6.99327L13 7H1C0.447715 7 0 6.55228 0 6C0 5.48716 0.38604 5.06449 0.883379 5.00673L1 5H13ZM13 10C13.5523 10 14 10.4477 14 11C14 11.5128 13.614 11.9355 13.1166 11.9933L13 12H1C0.447715 12 0 11.5523 0 11C0 10.4872 0.38604 10.0645 0.883379 10.0067L1 10H13Z"
          fill="currentColor"/>
</svg>
