<svg viewBox="0 0 18 18" fill="none" xmlns="http://www.w3.org/2000/svg">
    <path d="M9 1.65625C13.1484 1.65625 16.5938 5.06641 16.5938 9.25C16.5938 13.4688 13.1836 16.8438 9 16.8438C4.78125 16.8438 1.40625 13.4688 1.40625 9.25C1.40625 5.06641 4.78125 1.65625 9 1.65625ZM9 0.53125C4.18359 0.53125 0.28125 4.46875 0.28125 9.25C0.28125 14.0664 4.18359 17.9688 9 17.9688C13.7812 17.9688 17.7188 14.0664 17.7188 9.25C17.7188 4.46875 13.7812 0.53125 9 0.53125ZM7.73438 12.625C7.48828 12.625 7.3125 12.8359 7.3125 13.0469V13.3281C7.3125 13.5742 7.48828 13.75 7.73438 13.75H10.2656C10.4766 13.75 10.6875 13.5742 10.6875 13.3281V13.0469C10.6875 12.8359 10.4766 12.625 10.2656 12.625H9.84375V7.70312C9.84375 7.49219 9.63281 7.28125 9.42188 7.28125H7.73438C7.48828 7.28125 7.3125 7.49219 7.3125 7.70312V7.98438C7.3125 8.23047 7.48828 8.40625 7.73438 8.40625H8.15625V12.625H7.73438ZM9 4.1875C8.36719 4.1875 7.875 4.71484 7.875 5.3125C7.875 5.94531 8.36719 6.4375 9 6.4375C9.59766 6.4375 10.125 5.94531 10.125 5.3125C10.125 4.71484 9.59766 4.1875 9 4.1875Z"
          fill="currentColor"/>
</svg>
