<svg viewBox="0 0 11 14" xmlns="http://www.w3.org/2000/svg">
    <path d="M5.403 0A5.41 5.41 0 0 0 0 5.404c0 1.06.308 2.087.89 2.97l.048.085c.016.03.035.058.056.084.386.486 2.214 2.757 3.294 4.093l.121.137.005.005L5.438 14l1.147-1.459 3.222-3.99a.925.925 0 0 0 .083-.135l.007-.011c.595-.89.91-1.928.91-3.002A5.41 5.41 0 0 0 5.403 0zM8.85 7.738L8.81 7.8a.482.482 0 0 0-.015.027l-3.132 3.89-.216.256c-.047.056-.036.064-.101-.013l-.112-.125A1204.564 1204.564 0 0 1 1.998 7.81l-.034-.062-.026-.043a4.13 4.13 0 0 1-.696-2.302 4.166 4.166 0 0 1 4.162-4.162 4.166 4.166 0 0 1 4.162 4.162c-.001.827-.244 1.625-.717 2.334zM5.4 2.868a2.599 2.599 0 0 0-2.597 2.596A2.6 2.6 0 0 0 5.401 8.06a2.6 2.6 0 0 0 2.597-2.596 2.6 2.6 0 0 0-2.597-2.596zm0 3.95a1.357 1.357 0 0 1-1.355-1.355 1.356 1.356 0 0 1 2.71 0c0 .747-.607 1.356-1.355 1.356z"
          fill="currentColor"/>
</svg>
