<svg viewBox="0 0 16 16" xmlns="http://www.w3.org/2000/svg">
    <path d="M3.472 1.5h7.94L12.5 2.56V5H14V2.56a1.5 1.5 0 0 0-.44-1.06L12.5.44A1.498 1.498 0 0 0 11.44 0H3.473C2.672 0 2 .671 2 1.5V5h1.5l-.028-3.5zM13.75 6H2.25C1.01 6 0 7.01 0 8.25v3.5c0 .414.336.75.75.75H2.5V15a1 1 0 0 0 1 1h9a1 1 0 0 0 1-1v-2.5h1.75a.75.75 0 0 0 .75-.75v-3.5C16 7.01 14.99 6 13.75 6zM12 14.5H4v-3h8v3zm2.5-3.5h-1a1 1 0 0 0-1-1h-9a1 1 0 0 0-1 1h-1V8.25c0-.413.337-.75.75-.75h11.5c.413 0 .75.337.75.75V11z"
          fill="currentColor"/>
</svg>
