<svg viewBox="0 0 13 13" xmlns="http://www.w3.org/2000/svg">
    <path d="M6.128 3.605a3.137 3.137 0 0 0-3.142 3.142A3.137 3.137 0 0 0 6.128 9.89 3.137 3.137 0 0 0 9.27 6.747a3.137 3.137 0 0 0-3.142-3.142zm0 5.185a2.046 2.046 0 0 1-2.043-2.043c0-1.126.916-2.042 2.043-2.042 1.126 0 2.042.916 2.042 2.042A2.046 2.046 0 0 1 6.128 8.79zm4.003-5.313a.733.733 0 1 0-1.466 0 .733.733 0 0 0 1.466 0zm2.08.744c-.046-.982-.27-1.851-.99-2.568-.716-.716-1.585-.94-2.567-.99C7.643.606 4.61.606 3.598.663 2.62.71 1.75.934 1.031 1.65.31 2.367.09 3.236.04 4.218c-.057 1.012-.057 4.044 0 5.056.046.981.27 1.851.99 2.567.719.717 1.586.941 2.567.99 1.012.058 4.045.058 5.056 0 .982-.046 1.851-.27 2.568-.99.716-.716.94-1.586.99-2.567.057-1.012.057-4.042 0-5.053zm-1.306 6.138a2.068 2.068 0 0 1-1.165 1.165c-.807.32-2.72.246-3.612.246-.892 0-2.808.071-3.612-.246A2.068 2.068 0 0 1 1.35 10.36c-.32-.806-.246-2.72-.246-3.612 0-.891-.071-2.808.246-3.612A2.068 2.068 0 0 1 2.516 1.97c.806-.32 2.72-.246 3.612-.246.891 0 2.808-.07 3.612.246.536.214.949.626 1.165 1.165.32.807.246 2.72.246 3.612 0 .892.074 2.808-.246 3.612z"
          fill="currentColor"/>
</svg>
