<svg viewBox="0 0 15 16" fill="none" xmlns="http://www.w3.org/2000/svg">
    <path d="M14.35 5.2c0-3.282-2.144-4.22-2.144-4.22-2.11-.97-7.668-.937-9.744 0 0 0-2.11.938-2.11 4.22 0 3.85-.234 8.672 3.516 9.677 1.373.335 2.545.435 3.483.368 1.674-.1 2.645-.602 2.645-.602l-.067-1.24s-1.205.403-2.578.336c-1.34-.034-2.78-.134-3.014-1.809v-.468c2.847.703 5.291.3 5.96.234 1.876-.234 3.517-1.373 3.751-2.445.302-1.674.302-4.051.302-4.051zm-2.545 4.185h-1.54V5.568c0-1.674-2.144-1.741-2.144.234V7.88H6.547v-2.11c0-1.942-2.143-1.875-2.143-.201v3.817h-1.54c0-4.085-.201-4.955.603-5.86.87-.97 2.678-1.038 3.482.201l.402.637.368-.637c.804-1.239 2.612-1.172 3.483-.2.803.904.603 1.774.603 5.86z"
          fill="currentColor"/>
</svg>
