<svg viewBox="0 0 14 14" xmlns="http://www.w3.org/2000/svg">
    <path d="M13 0H.997C.447 0 0 .453 0 1.01v11.98C0 13.548.447 14 .997 14H13c.55 0 1-.453 1-1.01V1.01C14 .452 13.55 0 13 0zM4.231 12H2.156V5.319h2.078V12h-.003zM3.194 4.406a1.204 1.204 0 1 1 0-2.407 1.204 1.204 0 0 1 0 2.407zM12.009 12H9.934V8.75c0-.775-.015-1.772-1.078-1.772-1.081 0-1.247.844-1.247 1.716V12H5.534V5.319h1.991v.912h.028c.278-.525.956-1.078 1.966-1.078 2.1 0 2.49 1.384 2.49 3.184V12z"
          fill="currentColor"/>
</svg>
