<svg viewBox="0 0 16 15" xmlns="http://www.w3.org/2000/svg">
    <path d="M15.743 3.65c-.07 1.533-1.14 3.632-3.213 6.296-2.141 2.785-3.952 4.177-5.435 4.177-.918 0-1.695-.847-2.331-2.542C3.526 7.04 2.999 4.378 1.976 4.378c-.12 0-.531.25-1.238.742L0 4.163C1.814 2.571 3.547.8 4.634.7c1.227-.12 1.979.721 2.264 2.514 1.009 6.38 1.455 7.344 3.29 4.454.658-1.04 1.013-1.831 1.062-2.376.169-1.614-1.259-1.505-2.225-1.09C9.798 1.667 11.278.437 13.46.507c1.61.042 2.373 1.093 2.282 3.143z"
          fill="currentColor"/>
</svg>
