<svg viewBox="0 0 14 14" fill="none" xmlns="http://www.w3.org/2000/svg">
    <path d="M9.76 4.344l-.425.425A48906.544 48906.544 0 0 1 7.09 7.014l-1.06 1.06c-.17.17-.338.347-.512.513-.007.006-.015.012-.022.02l.145-.113c-.012.009-.023.015-.035.02l.172-.072a.163.163 0 0 1-.04.01l.192-.025a.223.223 0 0 1-.039 0l.191.026a.128.128 0 0 1-.039-.01l.172.072a.147.147 0 0 1-.035-.02c.05.037.097.074.145.112-.076-.067-.145-.144-.217-.215l-.496-.495-1.118-1.118-.257-.257a.74.74 0 0 0-.51-.21.734.734 0 0 0-.51.21c-.125.137-.219.317-.21.51a.756.756 0 0 0 .21.51l1.367 1.366.658.658c.016.016.03.032.046.046a.89.89 0 0 0 1.237.001l.068-.068L7.848 8.29l1.83-1.83c.36-.36.722-.716 1.08-1.08a.739.739 0 0 0 .228-.527.734.734 0 0 0-.21-.51c-.138-.125-.318-.218-.51-.21a.745.745 0 0 0-.506.211z"
          fill="currentColor"/>
    <path d="M12.56 7c0 .281-.019.562-.056.841l.025-.191a6.254 6.254 0 0 1-.432 1.59c.024-.058.05-.115.072-.172a6.375 6.375 0 0 1-.82 1.407l.112-.145a6.381 6.381 0 0 1-1.132 1.132l.145-.112c-.432.332-.905.61-1.407.82l.172-.072a6.295 6.295 0 0 1-1.59.433c.063-.01.128-.018.19-.026a6.462 6.462 0 0 1-1.68 0l.191.026a6.263 6.263 0 0 1-1.59-.433c.058.025.115.05.172.072a6.366 6.366 0 0 1-1.407-.82l.145.112a6.38 6.38 0 0 1-1.132-1.132l.112.145a6.325 6.325 0 0 1-.82-1.407l.071.172a6.29 6.29 0 0 1-.432-1.59l.026.191a6.464 6.464 0 0 1 0-1.681l-.026.191a6.258 6.258 0 0 1 .432-1.59l-.072.172a6.37 6.37 0 0 1 .821-1.407c-.037.05-.075.097-.112.145A6.38 6.38 0 0 1 3.67 2.54l-.145.113c.432-.333.904-.61 1.407-.821l-.172.072a6.29 6.29 0 0 1 1.59-.432l-.191.025a6.464 6.464 0 0 1 1.68 0l-.19-.025a6.259 6.259 0 0 1 1.59.432c-.058-.025-.116-.05-.172-.072a6.37 6.37 0 0 1 1.407.82c-.05-.037-.097-.074-.145-.112.423.329.803.709 1.132 1.132l-.113-.145c.333.432.61.905.821 1.407l-.072-.172c.213.508.359 1.044.432 1.59l-.025-.191c.037.278.056.559.056.84 0 .184.08.38.21.51.125.125.33.219.51.21.186-.009.38-.069.51-.21A.739.739 0 0 0 14 7a6.956 6.956 0 0 0-1.261-4.004 7.409 7.409 0 0 0-.71-.864 7.453 7.453 0 0 0-.842-.735A6.883 6.883 0 0 0 9.356.408 6.916 6.916 0 0 0 7.244.005a6.947 6.947 0 0 0-4.053 1.123 6.93 6.93 0 0 0-1.547 1.37c-.237.288-.46.589-.652.91a7.4 7.4 0 0 0-.496 1.014A6.927 6.927 0 0 0 .02 6.506a6.97 6.97 0 0 0 2.308 5.703c.518.46 1.099.855 1.73 1.14.348.157.703.295 1.068.398.374.104.757.167 1.143.212a6.957 6.957 0 0 0 4.144-.845 6.943 6.943 0 0 0 1.636-1.264 6.957 6.957 0 0 0 1.198-1.69 6.876 6.876 0 0 0 .656-2.009c.059-.381.098-.763.098-1.15a.75.75 0 0 0-.21-.509.728.728 0 0 0-.51-.21c-.186.008-.38.069-.51.21a.747.747 0 0 0-.21.508z"
          fill="currentColor"/>
</svg>
