<svg viewBox="0 0 14 14" fill="none" xmlns="http://www.w3.org/2000/svg">
    <path fill-rule="evenodd" clip-rule="evenodd"
          d="M7 14A7 7 0 1 0 7 0a7 7 0 0 0 0 14zM5.818 9.884c.377.077.755.116 1.133.116.52 0 .968-.074 1.345-.223.384-.154.679-.366.885-.635.213-.275.319-.595.319-.958 0-.814-.572-1.337-1.717-1.568l-1-.198c-.307-.06-.523-.14-.647-.24a.473.473 0 0 1-.185-.387c0-.215.1-.388.3-.52.207-.138.496-.206.868-.206.23 0 .454.022.673.066.218.044.425.112.62.206.194.088.356.107.486.058a.468.468 0 0 0 .283-.256.528.528 0 0 0 .036-.38.528.528 0 0 0-.275-.322 2.882 2.882 0 0 0-.84-.321A4.129 4.129 0 0 0 7.127 4c-.502 0-.944.077-1.328.231a2.05 2.05 0 0 0-.885.652 1.535 1.535 0 0 0-.319.966c0 .858.558 1.397 1.673 1.617l1 .198c.325.066.552.146.682.24.13.093.195.22.195.38 0 .186-.095.343-.284.47-.182.12-.486.181-.911.181-.283 0-.57-.03-.859-.09a2.927 2.927 0 0 1-.788-.281c-.182-.083-.339-.096-.469-.041a.526.526 0 0 0-.283.28.584.584 0 0 0-.026.413c.04.138.144.248.31.33.277.149.604.261.982.338z"
          fill="currentColor"/>
</svg>
