<svg viewBox="0 0 14 14" xmlns="http://www.w3.org/2000/svg">
    <path d="M14 7.241a3.179 3.179 0 0 0-.936-2.259L8.506.425 8.083 0H2.655A2.655 2.655 0 0 0 0 2.655v5.428l.425.426 4.557 4.555a3.196 3.196 0 0 0 4.521 0l3.56-3.564c.601-.597.939-1.411.937-2.259zM12.115 8.5l-3.616 3.616a1.773 1.773 0 0 1-2.509 0L1.366 7.49v-4.9c0-.676.548-1.224 1.225-1.224H7.49l4.625 4.624a1.773 1.773 0 0 1 0 2.51zM4.52 3.334c.79.79-.395 1.976-1.186 1.186-.79-.79.396-1.976 1.186-1.186"
          fill="currentColor"/>
</svg>
