<svg viewBox="0 0 500 260" xmlns="http://www.w3.org/2000/svg">
    <path d="M319 0c26.5 0 47.5 21.5 47.5 48.5v60c0 27 21.5 48.5 47.5 48.5h48c21 0 38 17.5 38 39v25c0 21.5-17 39-38 39h-57.5c-21 0-38-17.5-38-39v-15.5c0-27-21.5-48.5-47.5-48.5H47.5C21 157 0 135.5 0 108.5v-60C0 21.5 21.5 0 47.5 0H319zM71.5 42c-15 0-26 8.5-26 21 0 10.5 7.5 16.5 15.5 19l11.5 3.5c6 2 10.5 3.5 10.5 7-1 5-7 7.5-12 7.5-6 0-10.5-1.5-13.5-2.5-2.5-1-4.5-1.5-7-1.5-4.5 0-7 3-7 7.5 0 7.5 15 11.5 28 11.5C87 115 99 106.5 99 93.5c0-12-8-17.5-16.5-20.5l-13-4c-5.5-1.5-8-3-8-6.5S67 57 71.5 57C77 57 81 58.5 84 59.5c2 .5 4 1.5 6.5 1.5 4 0 6.5-3 6.5-7.5C97 46 83.5 42 71.5 42zm97 .5c-5 0-8 2.5-8 8v31c0 11-6.5 17.5-15.5 17.5s-15.5-6.5-15.5-17.5v-31c0-5.5-2.5-8-8-8-5 0-8 2.5-8 8v31C113.5 102 127 115 145 115s31.5-13 31.5-33.5v-31c0-5.5-2.5-8-8-8zm57.5.5h-22.5c-5 0-8 2.5-8 8v55c0 5.5 2.5 8 8 8 5 0 8-2.5 8-8V91.5H225l8 17c1.5 3.5 3.5 5 6.5 5 4 0 9-3 9-7.5 0-1.5-.5-3-1-4.5l-7-14c7-3.5 11-10.5 11-19.5 0-14.5-10.5-25-25.5-25zm88 0h-38c-5 0-8 2.5-8 8v55c0 5.5 2.5 8 8 8 5 0 8-2.5 8-8V88.5c0 .246 4.617.371 9.3.435l1.202.015c3.328.038 6.491.047 7.829.05h.67c5 0 7.499-2.5 7.499-7.5s-2.5-8-7.5-8h-19v-15h30c5 0 7.5-2.5 7.5-8 0-5-2.5-7.5-7.5-7.5zm-90 15.5c6 0 11 3 11 9.5s-5 9.5-11 9.5h-13.5v-19H224z"
          fill="currentColor" fill-rule="evenodd"/>
</svg>
